#!OML:ASF F:\VICON\USERDATA\INSTALL\Justin_Nancy\Justin_Nancy.ASF
:FULLY-SPECIFIED
:DEGREES
207
root 6.28219 17.5459 -2.15544 2.17296 -46.8022 -0.0985555
lowerback 6.74072 1.24537 1.55087
upperback -0.0547003 1.8471 1.99784
thorax -3.85459 0.900298 1.01088
lowerneck -14.4768 -3.8412 -10.7015
upperneck 24.1803 -4.16957 5.0802
head 10.4835 -2.36919 3.04793
rclavicle -3.66758e-014 -1.27222e-014
rhumerus -28.2743 -7.93387 -83.0738
rradius 36.8611
rwrist 1.83564
rhand -12.9299 12.9628
rfingers 7.12502
rthumb 13.1608 -16.6018
lclavicle -3.66758e-014 -1.27222e-014
lhumerus -34.2522 19.896 78.8252
lradius 25.0305
lwrist -12.2458
lhand -13.2126 27.212
lfingers 7.12502
lthumb 12.8882 56.7941
rfemur -0.463985 6.95599 30.804
rtibia 16.9302
rfoot -13.4954 -1.19736
rtoes 17.3528
lfemur -28.707 0.996474 -15.4267
ltibia 49.8627
lfoot -10.0864 7.74411
ltoes -3.80722
208
root 6.22994 17.5258 -2.06822 2.59075 -46.916 -0.630336
lowerback 6.81728 1.2246 2.03975
upperback 0.0461061 1.85482 1.9706
thorax -3.77681 0.894613 0.707462
lowerneck -14.7463 -3.91831 -10.3009
upperneck 24.0781 -4.28138 4.84287
head 10.4923 -2.4038 2.87524
rclavicle 1.14301e-015 0
rhumerus -28.0682 -7.83187 -83.3626
rradius 37.2802
rwrist 1.55462
rhand -13.3455 12.7626
rfingers 7.12502
rthumb 12.7601 -16.8275
lclavicle 1.14301e-015 0
lhumerus -33.8107 19.7864 78.7764
lradius 24.7742
lwrist -12.2107
lhand -13.3161 27.2901
lfingers 7.12502
lthumb 12.7884 56.8785
rfemur 0.118432 7.04741 31.1799
rtibia 16.4034
rfoot -13.4224 -1.31585
rtoes 16.7494
lfemur -29.1537 0.609675 -14.9423
ltibia 48.2402
lfoot -10.1643 7.90933
ltoes -4.68891
209
root 6.16693 17.5227 -1.97181 2.7926 -47.0347 -0.787046
lowerback 6.7268 1.16142 2.17246
upperback 0.0888911 1.77803 2.03653
thorax -3.67989 0.855152 0.711245
lowerneck -14.7962 -3.93744 -10.3147
upperneck 23.9199 -4.26106 4.72667
head 10.4411 -2.40468 2.83587
rclavicle 7.64824e-014 -2.22639e-014
rhumerus -27.9025 -7.27276 -83.6162
rradius 37.739
rwrist 0.975251
rhand -13.9371 11.7657
rfingers 7.12502
rthumb 12.1897 -17.8591
lclavicle 7.64824e-014 -2.22639e-014
lhumerus -33.5524 19.8757 78.8436
lradius 24.4405
lwrist -12.3566
lhand -13.3311 27.0628
lfingers 7.12502
lthumb 12.774 56.652
rfemur 0.656025 6.90897 31.2179
rtibia 16.0192
rfoot -13.5685 -1.28939
rtoes 15.4545
lfemur -29.5666 0.482117 -14.8592
ltibia 46.5648
lfoot -10.3553 8.12302
ltoes -1.8383
210
root 6.10165 17.5309 -1.87938 3.09004 -47.0697 -1.05
lowerback 6.70482 1.07927 2.31531
upperback -0.00509867 1.68752 2.21538
thorax -3.76678 0.80765 0.824618
lowerneck -14.5146 -3.90697 -10.6791
upperneck 23.7415 -4.17769 4.82528
head 10.3273 -2.38886 2.9446
rclavicle 2.49972e-014 7.95139e-015
rhumerus -27.9091 -6.76294 -83.547
rradius 37.9738
rwrist 0.478784
rhand -13.8959 11.4136
rfingers 7.12502
rthumb 12.2295 -18.2089
lclavicle 2.49972e-014 7.95139e-015
lhumerus -33.7374 20.4366 78.7932
lradius 24.2988
lwrist -12.987
lhand -13.4942 26.4558
lfingers 7.12502
lthumb 12.6168 56.0548
rfemur 1.22862 6.73057 31.3294
rtibia 15.5095
rfoot -13.6157 -1.18034
rtoes 15.8128
lfemur -29.9721 0.564417 -14.8366
ltibia 44.7966
lfoot -10.5139 8.48209
ltoes 2.02001
211
root 6.04013 17.508 -1.78641 3.19393 -47.1829 -1.06969
lowerback 6.76833 1.12501 2.30753
upperback -0.178305 1.75969 2.29831
thorax -3.98518 0.842106 0.904986
lowerneck -13.939 -3.97491 -11.03
upperneck 23.4871 -4.29283 4.99278
head 10.1488 -2.45801 3.0504
rclavicle -4.37823e-014 2.14687e-014
rhumerus -28.0862 -7.11047 -83.1798
rradius 37.9237
rwrist 0.675479
rhand -13.4487 11.8925
rfingers 7.12502
rthumb 12.6606 -17.7038
lclavicle -4.37823e-014 2.14687e-014
lhumerus -33.9087 20.3314 78.9195
lradius 24.1681
lwrist -13.303
lhand -14.0698 25.8205
lfingers 7.12502
lthumb 12.0618 55.4529
rfemur 1.89241 6.7728 31.3021
rtibia 14.8386
rfoot -13.5668 -1.2735
rtoes 16.454
lfemur -30.1126 0.551383 -15.0069
ltibia 42.8766
lfoot -10.675 8.67663
ltoes 2.02132
212
root 5.97101 17.513 -1.68892 2.86879 -47.3053 -0.679497
lowerback 6.87409 1.16353 2.00196
upperback -0.185336 1.79011 2.25867
thorax -4.05989 0.862905 1.02986
lowerneck -13.8154 -4.08165 -11.0931
upperneck 23.3871 -4.4457 5.01343
head 10.1057 -2.53136 3.04764
rclavicle 6.20208e-014 -1.27222e-014
rhumerus -28.2107 -7.31547 -82.9452
rradius 38.181
rwrist 0.525131
rhand -13.0672 12.4274
rfingers 7.12502
rthumb 13.0284 -17.1457
lclavicle 6.20208e-014 -1.27222e-014
lhumerus -33.7476 20.1631 79.0566
lradius 23.9651
lwrist -13.6071
lhand -14.3576 25.622
lfingers 7.12502
lthumb 11.7843 55.2705
rfemur 2.79678 6.63876 30.9447
rtibia 14.0619
rfoot -13.6625 -1.24184
rtoes 16.5715
lfemur -30.1129 0.386643 -15.4259
ltibia 40.8917
lfoot -10.7385 8.8626
ltoes -0.766
213
root 5.8992 17.5221 -1.58202 2.69294 -47.3794 -0.339769
lowerback 6.76508 1.13591 1.80663
upperback -0.141805 1.73105 2.2047
thorax -3.95699 0.838156 1.09193
lowerneck -13.9335 -4.09419 -11.1385
upperneck 23.3355 -4.46541 5.13505
head 10.1151 -2.52748 3.09432
rclavicle -1.08338e-014 9.54166e-015
rhumerus -28.2174 -7.15471 -82.9461
rradius 38.5472
rwrist -0.251789
rhand -13.0308 12.1496
rfingers 7.12502
rthumb 13.0635 -17.4213
lclavicle -1.08338e-014 9.54166e-015
lhumerus -33.6167 20.34 79.0776
lradius 24.002
lwrist -13.8176
lhand -13.4822 26.2511
lfingers 7.12502
lthumb 12.6284 55.8493
rfemur 3.51724 6.2388 30.5701
rtibia 13.4417
rfoot -13.8328 -1.1235
rtoes 16.3206
lfemur -30.2221 0.143336 -15.7918
ltibia 38.8321
lfoot -10.7946 8.99285
ltoes -0.576563
214
root 5.82786 17.5176 -1.46874 3.2001 -47.4974 -0.816563
lowerback 6.48376 1.10777 2.28501
upperback -0.0957604 1.71793 2.20739
thorax -3.73712 0.823561 0.833897
lowerneck -14.0337 -4.07504 -11.0833
upperneck 23.2634 -4.48507 5.32856
head 10.1114 -2.50654 3.15019
rclavicle -2.3556e-014 -1.35174e-014
rhumerus -28.0897 -7.17861 -83.0895
rradius 38.7027
rwrist -0.593332
rhand -12.9663 12.2262
rfingers 7.12502
rthumb 13.1257 -17.3407
lclavicle -2.3556e-014 -1.35174e-014
lhumerus -33.4507 20.1831 79.1538
lradius 24.1623
lwrist -13.594
lhand -12.8639 26.6265
lfingers 7.12502
lthumb 13.2244 56.187
rfemur 4.26362 5.79103 30.7497
rtibia 12.5821
rfoot -13.7879 -0.846349
rtoes 14.5653
lfemur -30.4852 -0.0101329 -15.5608
ltibia 36.8435
lfoot -10.885 9.0319
ltoes -2.30609
215
root 5.76327 17.4976 -1.37117 3.85078 -47.5305 -1.4639
lowerback 6.40801 0.981818 2.70613
upperback -0.0912659 1.58126 2.33802
thorax -3.68271 0.748577 0.747662
lowerneck -14.2166 -4.01799 -10.9067
upperneck 23.133 -4.3864 5.20049
head 10.0824 -2.45361 3.08464
rclavicle -1.39149e-014 0
rhumerus -27.8565 -7.0722 -83.1711
rradius 38.6478
rwrist -0.445535
rhand -12.9865 12.6168
rfingers 7.12502
rthumb 13.1062 -16.9513
lclavicle -1.39149e-014 0
lhumerus -33.1942 20.2487 79.1844
lradius 24.0135
lwrist -13.3944
lhand -13.4342 26.218
lfingers 7.12502
lthumb 12.6746 55.8134
rfemur 4.97785 5.77571 31.1911
rtibia 11.612
rfoot -13.3966 -0.715146
rtoes 12.7736
lfemur -30.7788 -0.0593164 -15.2459
ltibia 34.8996
lfoot -10.8995 9.01681
ltoes -6.27243
216
root 5.69974 17.4766 -1.2855 4.39657 -47.5096 -1.93838
lowerback 6.4928 0.890293 2.81334
upperback -0.165668 1.47955 2.52808
thorax -3.81085 0.695434 0.892161
lowerneck -14.5256 -3.99218 -10.7435
upperneck 23.2071 -4.30434 5.00039
head 10.1523 -2.42041 2.99443
rclavicle -4.2043e-014 -5.56597e-015
rhumerus -27.789 -6.88735 -83.1007
rradius 38.6797
rwrist -0.491032
rhand -13.1331 12.7156
rfingers 7.12502
rthumb 12.9648 -16.8616
lclavicle -4.2043e-014 -5.56597e-015
lhumerus -33.2555 20.2372 79.3699
lradius 24.1413
lwrist -13.2937
lhand -13.8584 26.0408
lfingers 7.12502
lthumb 12.2657 55.6611
rfemur 5.59064 5.79482 31.5797
rtibia 10.7036
rfoot -12.8763 -0.678656
rtoes 11.9994
lfemur -31.1028 0.0397112 -15.0949
ltibia 32.9905
lfoot -10.791 8.77408
ltoes -10.0016
